<svg width="32" height="32" viewBox="0 0 32 32" fill="none" xmlns="http://www.w3.org/2000/svg">
<path d="M30 10V8H27.899C27.77 7.37402 27.5215 6.77881 27.167 6.247L28.657 4.757L27.243 3.343L25.753 4.833C25.2212 4.47851 24.626 4.22997 24 4.101V2H22V4.101C21.374 4.22997 20.7788 4.47851 20.247 4.833L18.757 3.343L17.343 4.757L18.833 6.247C18.4785 6.77881 18.23 7.37402 18.101 8H16V10H18.101C18.23 10.626 18.4785 11.2212 18.833 11.753L17.343 13.243L18.757 14.657L20.247 13.167C20.7788 13.5215 21.374 13.77 22 13.899V16H24V13.899C24.626 13.77 25.2212 13.5215 25.753 13.167L27.243 14.657L28.657 13.243L27.167 11.753C27.5215 11.2212 27.77 10.626 27.899 10H30ZM23 12C22.4067 12 21.8266 11.8241 21.3333 11.4944C20.8399 11.1648 20.4554 10.6962 20.2284 10.1481C20.0013 9.59987 19.9419 8.99667 20.0576 8.41473C20.1734 7.83279 20.4591 7.29824 20.8787 6.87868C21.2982 6.45912 21.8328 6.1734 22.4147 6.05764C22.9967 5.94189 23.5999 6.0013 24.1481 6.22836C24.6962 6.45542 25.1648 6.83994 25.4944 7.33329C25.8241 7.82664 26 8.40666 26 9C25.9992 9.79541 25.6829 10.558 25.1204 11.1204C24.558 11.6829 23.7954 11.9992 23 12ZM16 30H14V25C13.9992 24.2046 13.6829 23.442 13.1204 22.8796C12.558 22.3171 11.7954 22.0008 11 22H7C6.20459 22.0008 5.44199 22.3171 4.87956 22.8796C4.31712 23.442 4.00079 24.2046 4 25V30H2V25C2.00159 23.6744 2.52888 22.4036 3.46622 21.4662C4.40356 20.5289 5.6744 20.0016 7 20H11C12.3256 20.0016 13.5964 20.5289 14.5338 21.4662C15.4711 22.4036 15.9984 23.6744 16 25V30ZM9 10C9.59334 10 10.1734 10.1759 10.6667 10.5056C11.1601 10.8352 11.5446 11.3038 11.7716 11.8519C11.9987 12.4001 12.0581 13.0033 11.9424 13.5853C11.8266 14.1672 11.5409 14.7018 11.1213 15.1213C10.7018 15.5409 10.1672 15.8266 9.58527 15.9424C9.00333 16.0581 8.40013 15.9987 7.85195 15.7716C7.30377 15.5446 6.83524 15.1601 6.50559 14.6667C6.17595 14.1734 6 13.5933 6 13C6 12.2044 6.31607 11.4413 6.87868 10.8787C7.44129 10.3161 8.20435 10 9 10ZM9 8C8.01109 8 7.04439 8.29325 6.22215 8.84265C5.3999 9.39206 4.75904 10.173 4.3806 11.0866C4.00216 12.0002 3.90315 13.0055 4.09607 13.9755C4.289 14.9454 4.7652 15.8363 5.46447 16.5355C6.16373 17.2348 7.05464 17.711 8.02455 17.9039C8.99445 18.0969 9.99979 17.9978 10.9134 17.6194C11.827 17.241 12.6079 16.6001 13.1573 15.7779C13.7068 14.9556 14 13.9889 14 13C14 12.3434 13.8707 11.6932 13.6194 11.0866C13.3681 10.48 12.9998 9.92876 12.5355 9.46447C12.0712 9.00017 11.52 8.63188 10.9134 8.3806C10.3068 8.12933 9.65661 8 9 8Z" fill="#222222"/>
</svg>
