<svg width="22" height="22" viewBox="0 0 22 22" fill="none" xmlns="http://www.w3.org/2000/svg">
<path d="M1.22445 1.2565C1.44975 1.03149 1.75514 0.905097 2.07356 0.905097C2.39198 0.905097 2.69738 1.03149 2.92267 1.2565L11.2856 9.61945L19.6486 1.2565C19.7954 1.09833 19.9823 0.982709 20.1893 0.921807C20.3964 0.860904 20.616 0.85698 20.8252 0.910447C21.0343 0.963914 21.2251 1.07279 21.3775 1.22561C21.5299 1.37843 21.6383 1.56953 21.6912 1.77879C21.7448 1.98766 21.741 2.2071 21.6804 2.41404C21.6198 2.62097 21.5046 2.80775 21.3468 2.95473L12.9838 11.3177L21.3468 19.6806C21.505 19.8275 21.6206 20.0143 21.6815 20.2214C21.7424 20.4284 21.7463 20.6481 21.6929 20.8572C21.6394 21.0663 21.5305 21.2571 21.3777 21.4096C21.2249 21.562 21.0338 21.6704 20.8245 21.7233C20.6156 21.7768 20.3962 21.7731 20.1893 21.7125C19.9823 21.6519 19.7956 21.5366 19.6486 21.3788L11.2856 13.0159L2.92267 21.3788C2.69476 21.591 2.39348 21.7065 2.08217 21.7011C1.77085 21.6957 1.47374 21.5699 1.25329 21.35C1.03341 21.1296 0.907558 20.8324 0.90218 20.5211C0.896803 20.2098 1.01232 19.9085 1.22445 19.6806L9.5874 11.3177L1.22445 2.95473C0.999435 2.72943 0.873047 2.42403 0.873047 2.10561C0.873047 1.7872 0.999435 1.4818 1.22445 1.2565Z" fill="#222222"/>
</svg>
