<svg width="41" height="41" viewBox="0 0 41 41" fill="none" xmlns="http://www.w3.org/2000/svg">
<path d="M14.3828 19.25H26.8828C27.2143 19.25 27.5323 19.3817 27.7667 19.6161C28.0011 19.8505 28.1328 20.1685 28.1328 20.5C28.1328 20.8315 28.0011 21.1495 27.7667 21.3839C27.5323 21.6183 27.2143 21.75 26.8828 21.75H14.3828C14.0513 21.75 13.7333 21.6183 13.4989 21.3839C13.2645 21.1495 13.1328 20.8315 13.1328 20.5C13.1328 20.1685 13.2645 19.8505 13.4989 19.6161C13.7333 19.3817 14.0513 19.25 14.3828 19.25Z" fill="#E75151" fill-opacity="0.82"/>
<path d="M20.6328 35.5C22.6026 35.5 24.5532 35.112 26.3731 34.3582C28.1929 33.6044 29.8465 32.4995 31.2394 31.1066C32.6323 29.7137 33.7372 28.0601 34.491 26.2403C35.2448 24.4204 35.6328 22.4698 35.6328 20.5C35.6328 18.5302 35.2448 16.5796 34.491 14.7597C33.7372 12.9399 32.6323 11.2863 31.2394 9.8934C29.8465 8.50052 28.1929 7.39563 26.3731 6.64181C24.5532 5.88799 22.6026 5.5 20.6328 5.5C16.6546 5.5 12.8393 7.08035 10.0262 9.8934C7.21316 12.7064 5.63281 16.5218 5.63281 20.5C5.63281 24.4782 7.21316 28.2936 10.0262 31.1066C12.8393 33.9196 16.6546 35.5 20.6328 35.5ZM20.6328 38C15.9915 38 11.5403 36.1563 8.25844 32.8744C4.97656 29.5925 3.13281 25.1413 3.13281 20.5C3.13281 15.8587 4.97656 11.4075 8.25844 8.12563C11.5403 4.84374 15.9915 3 20.6328 3C25.2741 3 29.7253 4.84374 33.0072 8.12563C36.2891 11.4075 38.1328 15.8587 38.1328 20.5C38.1328 25.1413 36.2891 29.5925 33.0072 32.8744C29.7253 36.1563 25.2741 38 20.6328 38Z" fill="#E75151" fill-opacity="0.82"/>
</svg>
