<svg width="41" height="41" viewBox="0 0 41 41" fill="none" xmlns="http://www.w3.org/2000/svg">
<path d="M34.9947 6.35415C34.4476 5.7789 33.791 5.31893 33.0635 5.00133C32.3359 4.68374 31.5522 4.51494 30.7584 4.50487C29.9647 4.49481 29.1769 4.64369 28.4416 4.94273C27.7062 5.24178 27.0381 5.68495 26.4767 6.24615L7.72668 24.9962C7.07131 25.6513 6.61621 26.4797 6.41468 27.3842L4.66068 35.2842C4.62408 35.4483 4.62948 35.6191 4.67639 35.7806C4.72329 35.9421 4.81018 36.0892 4.92902 36.2083C5.04786 36.3273 5.1948 36.4144 5.35625 36.4616C5.5177 36.5088 5.68845 36.5145 5.85268 36.4782L13.7067 34.7322C14.6416 34.524 15.4977 34.0536 16.1747 33.3762L34.8907 14.6602C35.9877 13.5626 36.6126 12.08 36.632 10.5283C36.6514 8.97665 36.0639 7.47879 34.9947 6.35415ZM27.8907 7.66015C28.2565 7.28904 28.6921 6.99399 29.1725 6.79198C29.6529 6.58998 30.1684 6.48502 30.6895 6.48315C31.2106 6.48128 31.727 6.58255 32.2088 6.7811C32.6906 6.97965 33.1283 7.27158 33.4968 7.64006C33.8653 8.00853 34.1572 8.44628 34.3557 8.92807C34.5543 9.40987 34.6555 9.92619 34.6537 10.4473C34.6518 10.9684 34.5469 11.484 34.3449 11.9643C34.1428 12.4447 33.8478 12.8803 33.4767 13.2462L32.1347 14.5882L26.5487 9.00415L27.8907 7.66015ZM25.1347 10.4202L30.7207 16.0042L14.7607 31.9642C14.3526 32.3728 13.8364 32.6566 13.2727 32.7822L6.95268 34.1862L8.36868 27.8202C8.48668 27.2862 8.75468 26.7982 9.14068 26.4122L25.1347 10.4202Z" fill="#3993C3"/>
</svg>
