<svg width="41" height="41" viewBox="0 0 41 41" fill="none" xmlns="http://www.w3.org/2000/svg">
<path d="M20.6341 15.5C21.9602 15.5 23.232 16.0268 24.1696 16.9645C25.1073 17.9021 25.6341 19.1739 25.6341 20.5C25.6341 21.8261 25.1073 23.0979 24.1696 24.0355C23.232 24.9732 21.9602 25.5 20.6341 25.5C19.308 25.5 18.0363 24.9732 17.0986 24.0355C16.1609 23.0979 15.6341 21.8261 15.6341 20.5C15.6341 19.1739 16.1609 17.9021 17.0986 16.9645C18.0363 16.0268 19.308 15.5 20.6341 15.5ZM20.6341 8C28.9674 8 36.0841 13.1833 38.9674 20.5C36.0841 27.8167 28.9674 33 20.6341 33C12.3008 33 5.18411 27.8167 2.30078 20.5C5.18411 13.1833 12.3008 8 20.6341 8ZM5.93411 20.5C7.2812 23.2505 9.37296 25.5679 11.9716 27.1888C14.5702 28.8096 17.5714 29.6689 20.6341 29.6689C23.6968 29.6689 26.698 28.8096 29.2966 27.1888C31.8953 25.5679 33.987 23.2505 35.3341 20.5C33.987 17.7495 31.8953 15.4321 29.2966 13.8112C26.698 12.1904 23.6968 11.3311 20.6341 11.3311C17.5714 11.3311 14.5702 12.1904 11.9716 13.8112C9.37296 15.4321 7.2812 17.7495 5.93411 20.5Z" fill="#0174B1"/>
</svg>
