<svg width="32" height="32" viewBox="0 0 32 32" fill="none" xmlns="http://www.w3.org/2000/svg">
<path d="M14.7067 3.45353C15.0681 3.14746 15.5264 2.97949 16 2.97949C16.4736 2.97949 16.9319 3.14746 17.2933 3.45353L27.2933 11.9375C27.5148 12.1253 27.6927 12.3589 27.8147 12.6223C27.9367 12.8858 28 13.1726 28 13.4629V26.0002C28 26.5306 27.7893 27.0393 27.4142 27.4144C27.0391 27.7895 26.5304 28.0002 26 28.0002H18.3333C18.0681 28.0002 17.8138 27.8948 17.6262 27.7073C17.4387 27.5198 17.3333 27.2654 17.3333 27.0002V18.6669H14.6667V27.0002C14.6667 27.2654 14.5613 27.5198 14.3738 27.7073C14.1862 27.8948 13.9319 28.0002 13.6667 28.0002H6C5.46957 28.0002 4.96086 27.7895 4.58579 27.4144C4.21071 27.0393 4 26.5306 4 26.0002V13.4629C4 12.8762 4.25867 12.3175 4.70667 11.9375L14.7067 3.45353ZM16 4.97887L6 13.4629V26.0002H12.6667V17.6669C12.6667 17.4016 12.772 17.1473 12.9596 16.9598C13.1471 16.7722 13.4015 16.6669 13.6667 16.6669H18.3333C18.5985 16.6669 18.8529 16.7722 19.0404 16.9598C19.228 17.1473 19.3333 17.4016 19.3333 17.6669V26.0002H26V13.4629L16 4.97887Z" fill="#222222"/>
</svg>
