<svg width="51" height="51" viewBox="0 0 51 51" fill="none" xmlns="http://www.w3.org/2000/svg">
<path opacity="0.2" d="M47.8133 28.0512C47.8133 32.7853 45.9327 37.3255 42.5851 40.673C39.2376 44.0205 34.6974 45.9012 29.9633 45.9012C25.2292 45.9012 20.6889 44.0205 17.3414 40.673C13.9939 37.3255 12.1133 32.7853 12.1133 28.0512C12.1133 23.3171 13.9939 18.7768 17.3414 15.4293C20.6889 12.0818 25.2292 10.2012 29.9633 10.2012C34.6974 10.2012 39.2376 12.0818 42.5851 15.4293C45.9327 18.7768 47.8133 23.3171 47.8133 28.0512Z" fill="#3993C3"/>
<path fill-rule="evenodd" clip-rule="evenodd" d="M25.5004 40.8004C29.5582 40.8004 33.4498 39.1884 36.3191 36.3191C39.1884 33.4498 40.8004 29.5582 40.8004 25.5004C40.8004 21.4426 39.1884 17.551 36.3191 14.6817C33.4498 11.8124 29.5582 10.2004 25.5004 10.2004C21.4426 10.2004 17.551 11.8124 14.6817 14.6817C11.8124 17.551 10.2004 21.4426 10.2004 25.5004C10.2004 29.5582 11.8124 33.4498 14.6817 36.3191C17.551 39.1884 21.4426 40.8004 25.5004 40.8004ZM25.5004 43.3504C27.8445 43.3504 30.1656 42.8887 32.3313 41.9916C34.497 41.0946 36.4647 39.7798 38.1222 38.1222C39.7798 36.4647 41.0946 34.497 41.9916 32.3313C42.8887 30.1656 43.3504 27.8445 43.3504 25.5004C43.3504 23.1563 42.8887 20.8352 41.9916 18.6695C41.0946 16.5038 39.7798 14.5361 38.1222 12.8785C36.4647 11.221 34.497 9.90619 32.3313 9.00914C30.1656 8.11209 27.8445 7.65039 25.5004 7.65039C20.7663 7.65039 16.2261 9.53101 12.8785 12.8785C9.53101 16.2261 7.65039 20.7663 7.65039 25.5004C7.65039 30.2345 9.53101 34.7747 12.8785 38.1222C16.2261 41.4698 20.7663 43.3504 25.5004 43.3504Z" fill="#3993C3"/>
<path fill-rule="evenodd" clip-rule="evenodd" d="M25.4996 16.5762C25.8378 16.5762 26.1621 16.7105 26.4012 16.9496C26.6403 17.1887 26.7746 17.513 26.7746 17.8512V25.5012C26.7746 25.8393 26.6403 26.1636 26.4012 26.4027C26.1621 26.6418 25.8378 26.7762 25.4996 26.7762C25.1615 26.7762 24.8372 26.6418 24.598 26.4027C24.3589 26.1636 24.2246 25.8393 24.2246 25.5012V17.8512C24.2246 17.513 24.3589 17.1887 24.598 16.9496C24.8372 16.7105 25.1615 16.5762 25.4996 16.5762Z" fill="#3993C3"/>
<path fill-rule="evenodd" clip-rule="evenodd" d="M34.4246 25.4996C34.4246 25.8378 34.2903 26.1621 34.0512 26.4012C33.8121 26.6403 33.4878 26.7746 33.1496 26.7746H25.4996C25.1615 26.7746 24.8372 26.6403 24.598 26.4012C24.3589 26.1621 24.2246 25.8378 24.2246 25.4996C24.2246 25.1615 24.3589 24.8372 24.598 24.598C24.8372 24.3589 25.1615 24.2246 25.4996 24.2246H33.1496C33.4878 24.2246 33.8121 24.3589 34.0512 24.598C34.2903 24.8372 34.4246 25.1615 34.4246 25.4996Z" fill="#3993C3"/>
</svg>
