<svg width="28" height="26" viewBox="0 0 28 26" fill="none" xmlns="http://www.w3.org/2000/svg">
<path d="M26.9154 25.1565L24.332 22.7251M13.3529 23.9408C14.9643 23.9408 16.5599 23.6421 18.0487 23.0617C19.5375 22.4813 20.8902 21.6306 22.0297 20.5582C23.1691 19.4858 24.073 18.2126 24.6896 16.8114C25.3063 15.4102 25.6237 13.9084 25.6237 12.3918C25.6237 10.8752 25.3063 9.37337 24.6896 7.97217C24.073 6.57098 23.1691 5.29783 22.0297 4.2254C20.8902 3.15298 19.5375 2.30228 18.0487 1.72189C16.5599 1.1415 14.9643 0.842773 13.3529 0.842773C10.0984 0.842773 6.9773 2.05954 4.67607 4.2254C2.37485 6.39126 1.08203 9.3288 1.08203 12.3918C1.08203 15.4548 2.37485 18.3923 4.67607 20.5582C6.9773 22.724 10.0984 23.9408 13.3529 23.9408V23.9408Z" stroke="white" stroke-width="1.5" stroke-linecap="round" stroke-linejoin="round"/>
</svg>
