<svg width="24" height="24" viewBox="0 0 24 24" fill="none" xmlns="http://www.w3.org/2000/svg">
<path d="M21.6654 6.68411H15.8654M6.1987 6.68411H2.33203M21.6654 17.3174H17.7987M8.13203 17.3174H2.33203M10.0654 10.0674C10.5097 10.0674 10.9496 9.97994 11.3601 9.80991C11.7706 9.63988 12.1436 9.39066 12.4577 9.07649C12.7719 8.76232 13.0211 8.38935 13.1912 7.97886C13.3612 7.56838 13.4487 7.12842 13.4487 6.68411C13.4487 6.23981 13.3612 5.79985 13.1912 5.38937C13.0211 4.97888 12.7719 4.60591 12.4577 4.29174C12.1436 3.97757 11.7706 3.72835 11.3601 3.55832C10.9496 3.38829 10.5097 3.30078 10.0654 3.30078C9.16805 3.30078 8.30749 3.65724 7.67299 4.29174C7.03849 4.92624 6.68203 5.7868 6.68203 6.68411C6.68203 7.58143 7.03849 8.44199 7.67299 9.07649C8.30749 9.71099 9.16805 10.0674 10.0654 10.0674V10.0674ZM13.932 20.7008C14.8293 20.7008 15.6899 20.3443 16.3244 19.7098C16.9589 19.0753 17.3154 18.2148 17.3154 17.3174C17.3154 16.4201 16.9589 15.5596 16.3244 14.9251C15.6899 14.2906 14.8293 13.9341 13.932 13.9341C13.0347 13.9341 12.1742 14.2906 11.5397 14.9251C10.9052 15.5596 10.5487 16.4201 10.5487 17.3174C10.5487 18.2148 10.9052 19.0753 11.5397 19.7098C12.1742 20.3443 13.0347 20.7008 13.932 20.7008V20.7008Z" stroke="white" stroke-width="2.5" stroke-miterlimit="10" stroke-linecap="round" stroke-linejoin="round"/>
</svg>
