<svg width="41" height="41" viewBox="0 0 41 41" fill="none" xmlns="http://www.w3.org/2000/svg">
<path d="M20.6328 25.5C23.3942 25.5 25.6328 23.2614 25.6328 20.5C25.6328 17.7386 23.3942 15.5 20.6328 15.5C17.8714 15.5 15.6328 17.7386 15.6328 20.5C15.6328 23.2614 17.8714 25.5 20.6328 25.5Z" stroke="#222222" stroke-width="2.25"/>
<path d="M23.5733 4.08683C22.9616 3.8335 22.1849 3.8335 20.6316 3.8335C19.0783 3.8335 18.3016 3.8335 17.6899 4.08683C17.2852 4.25435 16.9175 4.49999 16.6078 4.8097C16.2981 5.11941 16.0525 5.48713 15.8849 5.89183C15.7316 6.2635 15.6699 6.6985 15.6466 7.33016C15.6362 7.78681 15.5099 8.23333 15.2796 8.62778C15.0493 9.02223 14.7225 9.35167 14.3299 9.58516C13.9314 9.80857 13.4827 9.927 13.0258 9.92933C12.569 9.93166 12.119 9.81782 11.7183 9.5985C11.1583 9.30183 10.7533 9.1385 10.3516 9.08516C9.47548 8.96995 8.58944 9.20734 7.88828 9.74516C7.36494 10.1502 6.97494 10.8218 6.19828 12.1668C5.42161 13.5118 5.03161 14.1835 4.94661 14.8418C4.88934 15.2759 4.91814 15.717 5.03139 16.14C5.14463 16.5629 5.3401 16.9594 5.60661 17.3068C5.85328 17.6268 6.19828 17.8952 6.73328 18.2318C7.52161 18.7268 8.02828 19.5702 8.02828 20.5002C8.02828 21.4302 7.52161 22.2735 6.73328 22.7668C6.19828 23.1052 5.85161 23.3735 5.60661 23.6935C5.3401 24.0409 5.14463 24.4374 5.03139 24.8603C4.91814 25.2833 4.88934 25.7244 4.94661 26.1585C5.03328 26.8152 5.42161 27.4885 6.19661 28.8335C6.97494 30.1785 7.36328 30.8502 7.88828 31.2552C8.23567 31.5217 8.63217 31.7171 9.05512 31.8304C9.47807 31.9436 9.91919 31.9724 10.3533 31.9152C10.7533 31.8618 11.1583 31.6985 11.7183 31.4018C12.119 31.1825 12.569 31.0687 13.0258 31.071C13.4827 31.0733 13.9314 31.1918 14.3299 31.4152C15.1349 31.8818 15.6133 32.7402 15.6466 33.6702C15.6699 34.3035 15.7299 34.7368 15.8849 35.1085C16.0525 35.5132 16.2981 35.8809 16.6078 36.1906C16.9175 36.5003 17.2852 36.746 17.6899 36.9135C18.3016 37.1668 19.0783 37.1668 20.6316 37.1668C22.1849 37.1668 22.9616 37.1668 23.5733 36.9135C23.978 36.746 24.3457 36.5003 24.6554 36.1906C24.9651 35.8809 25.2108 35.5132 25.3783 35.1085C25.5316 34.7368 25.5933 34.3035 25.6166 33.6702C25.6499 32.7402 26.1283 31.8802 26.9333 31.4152C27.3318 31.1918 27.7805 31.0733 28.2374 31.071C28.6942 31.0687 29.1442 31.1825 29.5449 31.4018C30.1049 31.6985 30.5099 31.8618 30.9099 31.9152C31.344 31.9724 31.7851 31.9436 32.2081 31.8304C32.6311 31.7171 33.0276 31.5217 33.3749 31.2552C33.8999 30.8518 34.2883 30.1785 35.0649 28.8335C35.8416 27.4885 36.2316 26.8168 36.3166 26.1585C36.3739 25.7244 36.3451 25.2833 36.2318 24.8603C36.1186 24.4374 35.9231 24.0409 35.6566 23.6935C35.4099 23.3735 35.0649 23.1052 34.5299 22.7685C34.1395 22.5312 33.8158 22.1985 33.5893 21.8017C33.3627 21.4049 33.2408 20.957 33.2349 20.5002C33.2349 19.5702 33.7416 18.7268 34.5299 18.2335C35.0649 17.8952 35.4116 17.6268 35.6566 17.3068C35.9231 16.9594 36.1186 16.5629 36.2318 16.14C36.3451 15.717 36.3739 15.2759 36.3166 14.8418C36.2299 14.1852 35.8416 13.5118 35.0666 12.1668C34.2883 10.8218 33.8999 10.1502 33.3749 9.74516C33.0276 9.47865 32.6311 9.28318 32.2081 9.16994C31.7851 9.0567 31.344 9.02789 30.9099 9.08516C30.5099 9.1385 30.1049 9.30183 29.5433 9.5985C29.1427 9.81752 28.6931 9.9312 28.2366 9.92887C27.78 9.92654 27.3316 9.80827 26.9333 9.58516C26.5407 9.35167 26.2139 9.02223 25.9836 8.62778C25.7533 8.23333 25.627 7.78681 25.6166 7.33016C25.5933 6.69683 25.5333 6.2635 25.3783 5.89183C25.2108 5.48713 24.9651 5.11941 24.6554 4.8097C24.3457 4.49999 23.978 4.25435 23.5733 4.08683Z" stroke="#222222" stroke-width="2.25"/>
</svg>
