<svg width="32" height="32" viewBox="0 0 32 32" fill="none" xmlns="http://www.w3.org/2000/svg">
<g clip-path="url(#clip0_606_2749)">
<path d="M17.1423 20.5707L10.2852 21.805L11.428 14.8564L24.5252 1.80502C24.7376 1.59078 24.9904 1.42074 25.269 1.30469C25.5475 1.18865 25.8463 1.12891 26.148 1.12891C26.4498 1.12891 26.7485 1.18865 27.027 1.30469C27.3056 1.42074 27.5584 1.59078 27.7709 1.80502L30.1937 4.22787C30.408 4.44036 30.578 4.69316 30.6941 4.9717C30.8101 5.25023 30.8698 5.54899 30.8698 5.85073C30.8698 6.15247 30.8101 6.45123 30.6941 6.72976C30.578 7.0083 30.408 7.2611 30.1937 7.47359L17.1423 20.5707Z" stroke="#3993C3" stroke-opacity="0.7" stroke-width="1.71429" stroke-linecap="round" stroke-linejoin="round"/>
<path d="M27.4283 21.7132V28.5703C27.4283 29.1765 27.1875 29.7579 26.7588 30.1866C26.3302 30.6152 25.7488 30.856 25.1426 30.856H3.42829C2.82208 30.856 2.2407 30.6152 1.81205 30.1866C1.38339 29.7579 1.14258 29.1765 1.14258 28.5703V6.85603C1.14258 6.24982 1.38339 5.66844 1.81205 5.23978C2.2407 4.81113 2.82208 4.57031 3.42829 4.57031H10.2854" stroke="#3993C3" stroke-opacity="0.7" stroke-width="1.71429" stroke-linecap="round" stroke-linejoin="round"/>
</g>
<defs>
<clipPath id="clip0_606_2749">
<rect width="32" height="32" fill="white"/>
</clipPath>
</defs>
</svg>
