<svg width="41" height="40" viewBox="0 0 41 40" fill="none" xmlns="http://www.w3.org/2000/svg">
<path d="M11.6797 11.667H10.013C9.12897 11.667 8.28112 12.0182 7.656 12.6433C7.03088 13.2684 6.67969 14.1163 6.67969 15.0003V30.0003C6.67969 30.8844 7.03088 31.7322 7.656 32.3573C8.28112 32.9825 9.12897 33.3337 10.013 33.3337H25.013C25.8971 33.3337 26.7449 32.9825 27.37 32.3573C27.9952 31.7322 28.3464 30.8844 28.3464 30.0003V28.3337" stroke="#699BF7" stroke-width="3.33333" stroke-linecap="round" stroke-linejoin="round"/>
<path d="M26.6784 8.33351L31.6784 13.3335M33.9867 10.9752C34.6431 10.3188 35.0119 9.42848 35.0119 8.50018C35.0119 7.57187 34.6431 6.68159 33.9867 6.02518C33.3303 5.36877 32.44 5 31.5117 5C30.5834 5 29.6931 5.36877 29.0367 6.02518L15.0117 20.0002V25.0002H20.0117L33.9867 10.9752Z" stroke="#699BF7" stroke-width="3.33333" stroke-linecap="round" stroke-linejoin="round"/>
</svg>
