<svg width="17" height="20" viewBox="0 0 17 20" fill="none" xmlns="http://www.w3.org/2000/svg">
<path d="M8.4 0.399902C7.12696 0.399902 5.90606 0.905615 5.00589 1.80579C4.10571 2.70596 3.6 3.92686 3.6 5.1999C3.6 6.47294 4.10571 7.69384 5.00589 8.59402C5.90606 9.49419 7.12696 9.9999 8.4 9.9999C9.67304 9.9999 10.8939 9.49419 11.7941 8.59402C12.6943 7.69384 13.2 6.47294 13.2 5.1999C13.2 3.92686 12.6943 2.70596 11.7941 1.80579C10.8939 0.905615 9.67304 0.399902 8.4 0.399902ZM4.8 5.1999C4.8 4.24512 5.17929 3.32945 5.85442 2.65432C6.52955 1.97919 7.44522 1.5999 8.4 1.5999C9.35478 1.5999 10.2705 1.97919 10.9456 2.65432C11.6207 3.32945 12 4.24512 12 5.1999C12 6.15468 11.6207 7.07036 10.9456 7.74549C10.2705 8.42062 9.35478 8.7999 8.4 8.7999C7.44522 8.7999 6.52955 8.42062 5.85442 7.74549C5.17929 7.07036 4.8 6.15468 4.8 5.1999ZM2.4108 11.1999C2.09476 11.1986 1.78159 11.2598 1.48923 11.3798C1.19687 11.4998 0.931085 11.6764 0.707111 11.8994C0.483137 12.1223 0.305382 12.3873 0.18404 12.6791C0.0626975 12.971 0.000155414 13.2839 0 13.5999C0 15.6291 0.9996 17.1591 2.562 18.1563C4.1004 19.1367 6.174 19.5999 8.4 19.5999C10.626 19.5999 12.6996 19.1367 14.238 18.1563C15.8004 17.1603 16.8 15.6279 16.8 13.5999C16.8 12.9634 16.5471 12.3529 16.0971 11.9028C15.647 11.4528 15.0365 11.1999 14.4 11.1999H2.4108ZM1.2 13.5999C1.2 12.9363 1.7376 12.3999 2.4108 12.3999H14.4C14.7183 12.3999 15.0235 12.5263 15.2485 12.7514C15.4736 12.9764 15.6 13.2816 15.6 13.5999C15.6 15.1707 14.8536 16.3407 13.5924 17.1435C12.3084 17.9631 10.482 18.3999 8.4 18.3999C6.318 18.3999 4.4916 17.9631 3.2076 17.1435C1.9476 16.3395 1.2 15.1719 1.2 13.5999Z" fill="black"/>
</svg>
