<svg width="21" height="12" viewBox="0 0 21 12" fill="none" xmlns="http://www.w3.org/2000/svg">
<path d="M18.3245 1.02755C18.4199 0.937331 18.5322 0.866801 18.655 0.819986C18.7777 0.77317 18.9085 0.750986 19.0398 0.7547C19.1711 0.758415 19.3003 0.787955 19.4202 0.841633C19.5401 0.895312 19.6483 0.972078 19.7385 1.06755C19.8287 1.16302 19.8992 1.27533 19.946 1.39806C19.9928 1.52078 20.015 1.65153 20.0113 1.78283C20.0076 1.91414 19.9781 2.04342 19.9244 2.16331C19.8707 2.28319 19.7939 2.39133 19.6985 2.48155L10.6985 10.9816C10.5128 11.1571 10.267 11.2549 10.0115 11.2549C9.75596 11.2549 9.51014 11.1571 9.32447 10.9816L0.323467 2.48155C0.225906 2.39193 0.147123 2.28381 0.0916996 2.16349C0.036274 2.04316 0.00531197 1.91302 0.000608444 1.78062C-0.00409508 1.64823 0.0175552 1.51622 0.0643005 1.39226C0.111046 1.26831 0.181953 1.15487 0.272909 1.05855C0.363863 0.962232 0.473051 0.884944 0.594128 0.831177C0.715204 0.777411 0.845758 0.748239 0.978205 0.745354C1.11065 0.74247 1.24235 0.765931 1.36565 0.814375C1.48896 0.862819 1.6014 0.93528 1.69647 1.02755L10.0115 8.87955L18.3245 1.02755Z" fill="#222222"/>
</svg>
