<svg width="11" height="22" viewBox="0 0 11 22" fill="none" xmlns="http://www.w3.org/2000/svg">
<path d="M0.282432 2.68139C0.192214 2.58592 0.121684 2.47361 0.0748688 2.35088C0.0280533 2.22816 0.00586875 2.09741 0.00958309 1.96611C0.0132974 1.8348 0.0428375 1.70552 0.0965162 1.58563C0.150195 1.46575 0.226961 1.35761 0.322432 1.26739C0.417903 1.17717 0.53021 1.10664 0.652939 1.05983C0.775667 1.01301 0.906415 0.990826 1.03772 0.994541C1.16902 0.998255 1.2983 1.02779 1.41819 1.08147C1.53808 1.13515 1.64621 1.21192 1.73643 1.30739L10.2364 10.3074C10.412 10.4931 10.5098 10.7389 10.5098 10.9944C10.5098 11.2499 10.412 11.4957 10.2364 11.6814L1.73643 20.6824C1.64681 20.78 1.53869 20.8587 1.41837 20.9142C1.29804 20.9696 1.1679 21.0005 1.03551 21.0053C0.903112 21.01 0.771103 20.9883 0.647146 20.9416C0.523189 20.8948 0.409756 20.8239 0.313435 20.733C0.217115 20.642 0.139826 20.5328 0.0860602 20.4117C0.0322939 20.2907 0.00312155 20.1601 0.000237084 20.0277C-0.00264739 19.8952 0.0208133 19.7635 0.0692574 19.6402C0.117701 19.5169 0.190163 19.4045 0.282432 19.3094L8.13443 10.9944L0.282432 2.68139Z" fill="#222222"/>
</svg>
