
<svg width="19" height="17" viewBox="0 0 19 17" fill="none" xmlns="http://www.w3.org/2000/svg">
<path d="M4.09925 1.89027C4.25933 1.71848 4.34648 1.49125 4.34234 1.25647C4.3382 1.02169 4.24309 0.797686 4.07705 0.631645C3.91101 0.465605 3.687 0.370495 3.45222 0.366352C3.21744 0.36221 2.99022 0.449358 2.81842 0.609438L0.401754 3.0261C0.232043 3.19603 0.136719 3.42636 0.136719 3.66652C0.136719 3.90668 0.232043 4.13702 0.401754 4.30694L2.81842 6.7236C2.90139 6.81264 3.00144 6.88406 3.1126 6.93359C3.22377 6.98312 3.34377 7.00976 3.46546 7.0119C3.58714 7.01405 3.70801 6.99167 3.82085 6.94609C3.9337 6.90051 4.0362 6.83266 4.12226 6.74661C4.20831 6.66055 4.27616 6.55805 4.32174 6.4452C4.36732 6.33236 4.3897 6.21149 4.38755 6.08981C4.38541 5.96812 4.35877 5.84812 4.30924 5.73695C4.25971 5.62579 4.18829 5.52574 4.09925 5.44277L3.22925 4.57277H15.5422C15.7825 4.57277 16.013 4.47729 16.183 4.30734C16.3529 4.13738 16.4484 3.90687 16.4484 3.66652C16.4484 3.42617 16.3529 3.19566 16.183 3.02571C16.013 2.85575 15.7825 2.76027 15.5422 2.76027H3.22925L4.09925 1.89027ZM14.9018 10.2761C14.732 10.446 14.6367 10.6764 14.6367 10.9165C14.6367 11.1567 14.732 11.387 14.9018 11.5569L15.7718 12.4269H3.45884C3.21849 12.4269 2.98798 12.5224 2.81802 12.6924C2.64807 12.8623 2.55259 13.0928 2.55259 13.3332C2.55259 13.5735 2.64807 13.804 2.81802 13.974C2.98798 14.144 3.21849 14.2394 3.45884 14.2394H15.7718L14.9018 15.1094C14.8127 15.1924 14.7413 15.2925 14.6918 15.4036C14.6422 15.5148 14.6156 15.6348 14.6135 15.7565C14.6113 15.8782 14.6337 15.999 14.6793 16.1119C14.7249 16.2247 14.7927 16.3272 14.8787 16.4133C14.9648 16.4993 15.0673 16.5672 15.1802 16.6128C15.293 16.6583 15.4139 16.6807 15.5356 16.6786C15.6572 16.6764 15.7772 16.6498 15.8884 16.6003C15.9996 16.5507 16.0996 16.4793 16.1826 16.3903L18.5993 13.9736C18.769 13.8037 18.8643 13.5733 18.8643 13.3332C18.8643 13.093 18.769 12.8627 18.5993 12.6928L16.1826 10.2761C16.0127 10.1064 15.7823 10.0111 15.5422 10.0111C15.302 10.0111 15.0717 10.1064 14.9018 10.2761Z" fill="#FFBB54"/>
</svg>
